<svg version="1.1" width="35px" fill="#00306e" xmlns="http://www.w3.org/2000/svg" xmlns:xlink="http://www.w3.org/1999/xlink" x="0px" y="0px" viewBox="0 0 128 128" style="enable-background:new 0 0 128 128;" xml:space="preserve">
                        <g id="Layer_1">
                            <g id="_x31_">
                            </g>
                        </g>
                        <g id="_x31__1_">
                            <g>
                                <rect x="71.9" y="38.9" width="7.1" height="2"/>
                                <rect x="110.4" y="38.9" width="7.1" height="2"/>
                                <rect x="94.4" y="53.7" width="2" height="7.1"/>
                                <rect x="79.4" y="50.7" transform="matrix(0.7454 -0.6666 0.6666 0.7454 -13.3569 68.4863)" width="7.1" height="2"/>
                                <rect x="105.9" y="49.3" transform="matrix(0.7482 -0.6634 0.6634 0.7482 -8.1487 84.2362)" width="2" height="7.1"/>
                                <path d="M88.1,47.4c2,1.7,4.6,2.6,7.4,2.6c2.8,0,5.4-0.9,7.4-2.6c2.2-1.9,3.4-4.6,3.4-7.8c0-3.4-1.5-6.1-2.9-8.6&#10;&#9;&#9;&#9;c-1-1.9-2-3.7-2.2-5.5h0.5v-6.3h-2.5c0,0,0,0.4,0,0.4c0-1.4-0.8-2.6-2-3.2V8h-3.2v8.5c-1.2,0.6-2,1.8-2,3.2c0,0.1,0-0.4,0-0.4&#10;&#9;&#9;&#9;h-2.5v6.3h0.5c-0.2,1.8-1.2,3.6-2.2,5.5c-1.4,2.4-2.9,5.2-2.9,8.6C84.7,42.8,85.9,45.5,88.1,47.4z"/>
                                <circle cx="46.5" cy="49.5" r="17.5"/>
                                <path d="M96.1,105.6H74.2L84.4,88c2.1-3.7,0.8-8.4-2.8-10.5c-3.6-2.1-8.3-0.8-10.4,2.8L61,98L45.8,71.9c-1.5-2.7-4.4-4.1-8-4.1&#10;&#9;&#9;&#9;c-0.5,0-1.6,0.2-2.1,0.3c-0.5,0.1-1.2,0.3-1.7,0.5C19.3,73.4,7.7,96.8,7.7,121c0.4,0,35.2,0,44,0c-0.3-0.5-0.7-0.9-1-1.4&#10;&#9;&#9;&#9;L33.1,89.2c-0.6-1.1-0.2-2.4,0.8-3c1.1-0.6,2.4-0.2,3,0.8l17.5,30.2c1.3,2.2,3.7,3.8,6.5,3.8h35.2c4.3,0,7.7-3.5,7.7-7.7&#10;&#9;&#9;&#9;C103.8,109,100.3,105.6,96.1,105.6z"/>
                            </g>
                        </g>
                    </svg>