<svg version="1.2" baseProfile="tiny" id="Layer_1" width="32px" fill="black" xmlns="http://www.w3.org/2000/svg" xmlns:xlink="http://www.w3.org/1999/xlink" x="0px" y="0px" viewBox="-351 153 256 256" xml:space="preserve">
                        <path d="M-118.7,170.3h-205.5c-13.2,0-23.8,10.6-23.8,23.8v127.3c0,13.2,10.6,23.8,23.8,23.8h70l35,45.9h68.1v-21.1v-24.7v-11.8&#10;                   v-5.6v-8.3c0-7.4-4.4-14.1-11.1-17.1l-46.1-19.4v-44c0-5.8-4.7-10.9-10.9-10.9h-0.3c-5.6,0-10.2,4.4-10.6,9.7v87&#10;                   c0,1.4-1.2,2.6-2.6,2.6c-1.4,0-2.6-1.2-2.6-2.6v-4.4v-19.2c0-5.8-5-10.9-10.9-10.9s-10.9,5-10.9,10.9v26v0.3H-316v-140h188.7v140.3&#10;                   h-18.3v17.4h26.8c13.2,0,23.8-10.6,23.8-23.8V194.1C-94.9,180.8-105.5,170.3-118.7,170.3z M-111.1,263.8c-3.4,0-6.2-2.8-6.2-6.2&#10;                   c0-3.4,2.8-6.2,6.2-6.2c3.4,0,6.2,2.8,6.2,6.2C-104.9,261-107.7,263.8-111.1,263.8z M-203.1,258.5c0.6,0.6,1.4,0.9,2.3,0.9&#10;                   s2.1-0.3,2.6-1.2c4.4-5,6.7-11.8,6.7-18.5c0-15.6-12.7-28.2-28.2-28.2c-15.6,0-28.2,12.7-28.2,28.2c0,6.5,2.3,12.9,6.5,17.9&#10;                   c1.2,1.4,3.5,1.8,5.3,0.6c1.4-1.2,1.8-3.5,0.6-5.3c-3-3.9-4.7-8.5-4.7-13.2c0-11.4,9.4-20.9,20.9-20.9s20.9,9.4,20.9,20.9&#10;                   c0,5-1.8,10-5,13.5C-204.9,254.9-204.5,257.3-203.1,258.5z"/>
                    </svg>