<svg width="38px" viewBox="0 0 512 512" id="Capa_1" style="enable-background:new 0 0 512 512;" version="1.1" xml:space="preserve" xmlns="http://www.w3.org/2000/svg" xmlns:xlink="http://www.w3.org/1999/xlink">
                        <g>
                            <path d="M125.5,358c-10.6,10.6-10.6,27.9,0,38.5s27.9,10.6,38.5,0c10.6-10.6,10.6-27.9,0-38.5C153.4,347.3,136.1,347.3,125.5,358z"/>
                            <path d="M435.1,206.6c-2-2-5.1-2-7.1,0l-37.7,37.7L371,225c-2-2-5.1-2-7.1,0c-2,2-2,5.1,0,7.1l22.9,22.9c1,1,2.3,1.5,3.5,1.5   s2.6-0.5,3.5-1.5l41.2-41.2C437.1,211.7,437.1,208.6,435.1,206.6z"/>
                            <path d="M399.5,169.3c-1.7,0-3.3,0.1-4.9,0.2V137c0-1.3-0.5-2.6-1.5-3.5l-88.9-88.9c-0.9-0.9-2.2-1.5-3.5-1.5H120.6   c-8.3,0-15,6.7-15,15v241.5c0,2.8,2.2,5,5,5s5-2.2,5-5V58.1c0-2.8,2.2-5,5-5h175.1v15H140.6c-5.5,0-10,4.5-10,10v227.1   c-3.9,0-7.7,1.9-10.1,5.3l-9.4,13.4c-0.3,0.5-0.8,0.8-1.4,1l-15.9,4.2c-5.9,1.6-9.7,7.1-9.2,13.2l1.4,16.4c0.1,0.6-0.1,1.2-0.4,1.7   l-9.4,13.4c-3.5,5-2.9,11.7,1.4,16l6.9,6.9l-27,27c-2.8,2.8-4.4,6.6-4.4,10.6s1.6,7.8,4.4,10.6l19.7,19.7c2.8,2.8,6.6,4.4,10.6,4.4   c4,0,7.8-1.6,10.6-4.4l9.3-9.3c2-2,2-5.1,0-7.1c-2-2-5.1-2-7.1,0l-9.3,9.3c-1.9,1.9-5.1,2-7.1,0l-19.7-19.7   c-0.9-0.9-1.5-2.2-1.5-3.5c0-1.3,0.5-2.6,1.5-3.5l25.5-25.5l0,0l1.2,14.1c0.5,6.1,5.3,10.8,11.4,11.4l16.4,1.4   c0.6,0.1,1.1,0.3,1.5,0.7l11.6,11.6c2.4,2.4,5.6,3.7,8.8,3.7c2.5,0,5-0.7,7.2-2.3l13.4-9.4c0.5-0.3,1.1-0.5,1.7-0.4l16.4,1.4   c6.1,0.5,11.6-3.3,13.2-9.2l3.2-11.8h183.6c8.3,0,15-6.7,15-15V287.9c1.6,0.1,3.3,0.2,4.9,0.2c32.8,0,59.4-26.7,59.4-59.4   S432.3,169.3,399.5,169.3z M305.6,60.2l71.9,71.9h-66.9c-2.8,0-5-2.2-5-5V60.2z M384.6,142v29.2c-5.4,1.4-10.4,3.5-15,6.2V142   H384.6z M289.1,350.5c-2.8,0-5-2.2-5-5s2.2-5,5-5h56c2.8,0,5,2.2,5,5s-2.2,5-5,5H289.1z M335.1,365.5c0,2.8-2.2,5-5,5h-25.9   c-2.8,0-5-2.2-5-5s2.2-5,5-5h25.9C332.8,360.5,335.1,362.7,335.1,365.5z M229.8,294.9c-2.8,0-5-2.2-5-5s2.2-5,5-5H322   c2.8,0,5,2.2,5,5s-2.2,5-5,5H229.8z M154,94.7c6.3-6,15.8-6.6,22.7-1.6c1.3,0.9,3,0.9,4.4,0c6.9-5,16.4-4.4,22.7,1.6   c7.2,6.9,7,18.6-0.1,25.7l-21.3,21.3c-2,2-5.1,2-7.1,0l-21.3-21.3C147,113.3,146.8,101.6,154,94.7z M153.7,162.6h115.5   c2.8,0,5,2.2,5,5s-2.2,5-5,5H153.7c-2.8,0-5-2.2-5-5S150.9,162.6,153.7,162.6z M148.7,208.2c0-8.3,6.7-15,15-15h150.5   c8.3,0,15,6.7,15,15v10.6c0,8.3-6.7,15-15,15H163.7c-8.3,0-15-6.7-15-15V208.2z M153.7,254.3H322c2.8,0,5,2.2,5,5c0,2.8-2.2,5-5,5   H153.7c-2.8,0-5-2.2-5-5C148.7,256.6,150.9,254.3,153.7,254.3z M153.7,284.9h46.1c2.8,0,5,2.2,5,5s-2.2,5-5,5h-46.1   c-2.8,0-5-2.2-5-5S150.9,284.9,153.7,284.9z M192.3,402.7c-2.4,1.7-4.1,4.2-4.9,7l-4.2,15.9c-0.3,1.2-1.4,2-2.6,1.8l-16.4-1.4   c-2.9-0.3-5.9,0.5-8.3,2.2l-13.4,9.4c-1,0.7-2.3,0.6-3.2-0.3l-11.6-11.6c-2.1-2.1-4.8-3.4-7.7-3.6l-16.4-1.4   c-1.2-0.1-2.2-1.1-2.3-2.3l-1.4-16.4c-0.3-2.9-1.5-5.7-3.6-7.7l-11.6-11.6c-0.9-0.9-1-2.2-0.3-3.2l9.4-13.4   c1.7-2.4,2.5-5.3,2.2-8.3l-1.4-16.4c-0.1-1.2,0.7-2.3,1.8-2.6l15.9-4.2c2.8-0.8,5.3-2.5,7-4.9l9.4-13.4c0.7-1,2-1.3,3.1-0.8   l14.9,6.9c2.7,1.2,5.7,1.5,8.5,0.7l15.9-4.2c1.2-0.3,2.4,0.3,2.9,1.4l6.9,14.9c1.2,2.7,3.4,4.8,6,6l14.9,6.9   c1.1,0.5,1.7,1.7,1.4,2.9l-4.2,15.9c-0.8,2.8-0.5,5.9,0.7,8.5l6.9,14.9c0.5,1.1,0.2,2.4-0.8,3.1L192.3,402.7z M384.6,401.4   c0,2.8-2.2,5-5,5H204.5l7-4.9c3.4-2.4,5.3-6.2,5.3-10.1h142.8c5.5,0,10-4.5,10-10V280.1c4.6,2.7,9.6,4.8,15,6.2V401.4z    M399.5,278.2c-27.3,0-49.4-22.2-49.4-49.4s22.2-49.4,49.4-49.4c27.3,0,49.4,22.2,49.4,49.4S426.8,278.2,399.5,278.2z"/>
                        </g>
                    </svg>