<svg version="1.1" width="33px" fill="black" id="Layer_1" xmlns="http://www.w3.org/2000/svg" xmlns:xlink="http://www.w3.org/1999/xlink" x="0px" y="0px" viewBox="0 0 256 256" enable-background="new 0 0 256 256" xml:space="preserve">
                        <path d="M192.498,124.8c9.278,0,16.8,7.522,16.8,16.8s-7.522,16.8-16.8,16.8s-16.8-7.522-16.8-16.8S183.22,124.8,192.498,124.8z&#10;                    M171.798,166.6c9.278,0,16.8,7.522,16.8,16.8s-7.522,16.8-16.8,16.8s-16.8-7.522-16.8-16.8S162.52,166.6,171.798,166.6z&#10;                    M144.998,203.3h-18.9h-18.9c-11.5,0-18.7,9.5-18.7,21.4V254h12.9v-25.9c0-1.2,1-2,2-2c1.2,0,2,0.8,2,2v25.8h41.5v-25.8&#10;                   c0-1.2,1-2,2-2c1.2,0,2,1,2,2v25.8h12.9v-29.1C163.998,212.8,156.698,203.3,144.998,203.3z M149.698,124.8&#10;                   c9.278,0,16.8,7.522,16.8,16.8s-7.522,16.8-16.8,16.8s-16.8-7.522-16.8-16.8S140.42,124.8,149.698,124.8z M199.098,183.4&#10;                   c0,9.3,7.5,16.8,16.8,16.8s16.8-7.5,16.8-16.8s-7.5-16.8-16.8-16.8S199.098,174.1,199.098,183.4z M197.398,203.3&#10;                   c-11.5,0-18.7,9.5-18.7,21.4V254h12.9v-25.9c0-1.2,1-2,2-2c1.2,0,2,0.8,2,2v25.8h41.5v-25.8c0-1.2,1-2,2-2c1.2,0,2,1,2,2v25.8h12.9&#10;                   v-29.1c0.2-12.1-7.1-21.6-18.7-21.6h-18.9h-19V203.3z M39.798,166.6c9.278,0,16.8,7.522,16.8,16.8s-7.522,16.8-16.8,16.8&#10;                   s-16.8-7.522-16.8-16.8S30.52,166.6,39.798,166.6z M14.798,253.9v-25.8c0-1.2,1-2,2-2c1.2,0,2,0.8,2,2v25.8h41.5v-25.8&#10;                   c0-1.2,1-2,2-2c1.2,0,2,1,2,2v25.8h12.9v-29.1c0.2-12.1-7.1-21.6-18.7-21.6h-18.9h-18.9c-11.5,0-18.7,9.5-18.7,21.4v29.3&#10;                   L14.798,253.9L14.798,253.9z M109.298,183.4c0,9.3,7.5,16.8,16.8,16.8c9.3,0,16.8-7.5,16.8-16.8s-7.5-16.8-16.8-16.8&#10;                   S109.298,174.1,109.298,183.4z M61.298,124.8c9.278,0,16.8,7.522,16.8,16.8s-7.522,16.8-16.8,16.8s-16.8-7.522-16.8-16.8&#10;                   S52.02,124.8,61.298,124.8z M106.698,124.8c9.278,0,16.8,7.522,16.8,16.8s-7.522,16.8-16.8,16.8s-16.8-7.522-16.8-16.8&#10;                   S97.42,124.8,106.698,124.8z M84.098,166.6c9.278,0,16.8,7.522,16.8,16.8s-7.522,16.8-16.8,16.8s-16.8-7.522-16.8-16.8&#10;                   S74.82,166.6,84.098,166.6z M128,2C99.327,2,76,25.327,76,54s23.327,52,52,52s52-23.327,52-52S156.673,2,128,2z M166.457,34.067&#10;                   h-14.072c-1.158-5.359-2.784-10.311-4.845-14.62c-0.974-2.036-2.028-3.883-3.148-5.55C153.912,17.802,161.738,24.999,166.457,34.067&#10;                   z M171.333,54c0,4.212-0.615,8.281-1.741,12.133h-15.889c0.484-3.924,0.736-7.992,0.736-12.133c0-3.838-0.22-7.611-0.636-11.267&#10;                   h16.035C170.808,46.328,171.333,50.103,171.333,54z M128,95.889c-5.758,0-11.964-8.072-15.305-21.089h30.61&#10;                   C139.964,87.817,133.758,95.889,128,95.889z M111.027,66.133c-0.511-3.787-0.8-7.844-0.8-12.133c0-3.963,0.244-7.73,0.684-11.267&#10;                   h34.178c0.44,3.537,0.684,7.304,0.684,11.267c0,4.29-0.288,8.347-0.8,12.133H111.027z M84.667,54c0-3.897,0.525-7.672,1.495-11.267&#10;                   h16.035c-0.417,3.656-0.636,7.429-0.636,11.267c0,4.142,0.252,8.209,0.736,12.133H86.408C85.282,62.281,84.667,58.212,84.667,54z&#10;                    M128,12.111c5.884,0,12.233,8.434,15.517,21.955h-31.034C115.767,20.546,122.116,12.111,128,12.111z M111.607,13.896&#10;                   c-1.12,1.667-2.174,3.515-3.148,5.55c-2.061,4.309-3.687,9.261-4.845,14.62H89.543C94.262,24.999,102.088,17.802,111.607,13.896z&#10;                    M89.997,74.8H103.8c1.144,5.028,2.71,9.676,4.66,13.753c0.974,2.036,2.028,3.883,3.148,5.55&#10;                   C102.392,90.323,94.757,83.461,89.997,74.8z M144.393,94.104c1.12-1.667,2.174-3.515,3.148-5.55c1.95-4.077,3.516-8.725,4.66-13.753&#10;                   h13.802C161.243,83.461,153.608,90.323,144.393,94.104z"/>
                    </svg>